<?xml version="1.0" standalone="no"?>
<!DOCTYPE svg PUBLIC "-//W3C//DTD SVG 20010904//EN"
 "http://www.w3.org/TR/2001/REC-SVG-20010904/DTD/svg10.dtd">
<svg version="1.0" xmlns="http://www.w3.org/2000/svg"
 width="666.000000pt" height="666.000000pt" viewBox="0 0 666.000000 666.000000"
 preserveAspectRatio="xMidYMid meet">
<metadata>
Created by potrace 1.11, written by Peter Selinger 2001-2013
</metadata>
<g transform="translate(0.000000,666.000000) scale(0.100000,-0.100000)"
fill="#000000" stroke="none">
<path d="M3717 6594 c-1 -1 -54 -4 -117 -8 -63 -3 -124 -8 -135 -10 -11 -2
-46 -7 -78 -10 -51 -6 -155 -24 -241 -41 -68 -14 -299 -77 -386 -105 -141 -46
-308 -114 -465 -189 -125 -60 -189 -94 -370 -196 -101 -57 -429 -277 -525
-352 -560 -439 -916 -929 -1124 -1545 -46 -136 -97 -334 -121 -469 -17 -97
-35 -226 -40 -289 -3 -41 -8 -97 -11 -125 -7 -67 -7 -418 0 -480 3 -27 8 -84
12 -125 3 -41 7 -86 9 -100 2 -14 6 -45 10 -70 21 -154 74 -296 120 -320 77
-41 111 101 71 300 -26 128 -21 106 -76 345 -39 170 -48 261 -44 455 1 102 5
201 9 220 3 19 10 67 16 105 15 93 15 94 34 183 10 43 13 58 25 102 7 25 13
52 15 60 6 32 58 196 71 227 8 17 14 36 14 41 0 37 176 387 254 507 155 237
404 502 691 735 43 36 86 72 95 80 86 78 397 295 525 366 204 114 437 192 460
154 3 -5 -22 -23 -57 -40 -88 -41 -191 -98 -320 -177 -61 -38 -124 -76 -142
-87 -17 -10 -102 -68 -189 -129 -620 -433 -985 -854 -1160 -1338 -39 -107 -97
-311 -111 -389 -2 -14 -7 -36 -10 -50 -7 -31 -16 -93 -22 -142 -2 -21 -6 -50
-9 -65 -18 -102 -24 -472 -11 -648 14 -173 26 -267 61 -470 29 -166 110 -470
169 -635 149 -411 326 -725 437 -770 114 -48 67 203 -86 450 -64 105 -90 197
-90 325 0 153 20 225 61 225 28 0 68 -76 123 -232 179 -505 390 -854 701
-1158 102 -100 124 -119 210 -186 214 -167 441 -283 693 -355 98 -28 102 -28
311 -24 345 8 476 15 499 27 61 32 78 87 43 140 -50 77 -263 149 -481 162
-171 11 -260 18 -279 22 -11 2 -38 6 -61 10 -108 15 -342 120 -493 220 -157
105 -279 239 -316 347 -21 62 -20 94 2 105 36 18 51 12 442 -175 300 -144 612
-255 805 -287 17 -3 48 -9 70 -13 48 -10 288 -9 515 1 206 9 272 12 485 21
130 5 191 12 262 30 196 51 353 130 464 232 102 94 144 179 102 202 -10 5 -51
11 -90 14 -86 7 -113 19 -113 51 0 39 121 139 335 277 499 321 669 469 743
646 27 64 29 142 4 173 -51 63 -199 14 -334 -113 -100 -94 -261 -190 -356
-213 -86 -20 -165 -18 -186 5 -16 17 -16 22 -2 52 16 37 54 80 106 119 193
145 340 277 434 390 137 167 245 402 248 542 2 136 -42 191 -137 174 -71 -14
-131 -89 -178 -222 -39 -110 -65 -160 -143 -279 -79 -122 -87 -132 -193 -254
-261 -303 -541 -510 -821 -609 -47 -16 -110 -35 -140 -41 -30 -6 -66 -14 -80
-16 -95 -20 -343 -15 -470 10 -475 93 -842 349 -1122 786 -121 187 -193 378
-226 599 -14 93 -7 361 12 470 2 14 7 42 11 64 4 21 20 86 36 143 108 386 291
700 506 870 29 23 87 72 130 110 152 135 183 174 183 235 0 62 -40 84 -98 54
-31 -16 -223 -210 -408 -412 -62 -68 -106 -61 -106 16 0 98 75 224 212 360
100 99 205 174 329 236 87 43 237 98 296 108 17 3 55 10 85 16 75 15 280 20
360 10 36 -5 83 -11 105 -13 114 -14 297 -67 445 -129 340 -143 665 -398 890
-697 67 -88 172 -275 196 -346 127 -383 218 -640 239 -679 31 -53 79 -89 110
-80 36 10 101 89 116 141 13 47 16 152 6 203 -17 83 -51 156 -119 257 -61 92
-71 116 -54 139 10 13 21 16 47 11 118 -23 263 -155 329 -300 39 -87 51 -145
51 -242 -1 -97 -3 -110 -45 -270 -2 -5 -6 -17 -9 -25 -10 -28 -56 -204 -88
-335 -82 -341 -74 -607 21 -707 40 -41 54 -43 105 -16 64 35 114 111 163 250
104 295 143 707 91 938 -6 25 -12 52 -14 60 -2 9 -15 51 -30 95 -54 161 -132
299 -232 408 -149 163 -187 210 -219 276 -35 74 -37 98 -9 117 21 14 27 14 57
-2 36 -18 53 -34 85 -80 24 -33 133 -224 133 -231 0 -19 76 -113 99 -123 38
-15 94 9 111 49 39 95 -70 399 -253 705 -229 383 -507 684 -810 880 -181 117
-418 218 -677 290 -151 42 -268 66 -460 91 -61 9 -231 19 -290 17 -162 -3
-489 -2 -524 2 -21 2 -46 12 -55 21 -15 15 -14 18 12 39 32 26 142 66 262 95
71 17 134 24 310 36 60 4 183 14 245 20 25 2 92 7 150 10 58 4 109 11 114 15
39 38 -234 118 -463 136 -64 5 -280 11 -284 8z"/>
</g>
</svg>
